<svg width="14" height="14" viewBox="0 0 14 14" fill="none" xmlns="http://www.w3.org/2000/svg">
<path d="M13.6563 6.32118H3.04293L9.39537 0.892609C9.49695 0.805109 9.43528 0.642609 9.30104 0.642609H7.6957C7.62496 0.642609 7.55784 0.667609 7.50524 0.712251L0.650329 6.56761C0.587546 6.62118 0.537194 6.68742 0.502686 6.76182C0.468177 6.83623 0.450317 6.91707 0.450317 6.99886C0.450317 7.08065 0.468177 7.16149 0.502686 7.2359C0.537194 7.3103 0.587546 7.37653 0.650329 7.43011L7.54514 13.3212C7.57235 13.3444 7.605 13.3569 7.63947 13.3569H9.29923C9.43346 13.3569 9.49513 13.1926 9.39355 13.1069L3.04293 7.67832H13.6563C13.7361 7.67832 13.8014 7.61404 13.8014 7.53547V6.46404C13.8014 6.38547 13.7361 6.32118 13.6563 6.32118Z" fill="#1890FF"/>
</svg>
