<svg width="48" height="48" viewBox="0 0 48 48" fill="none" xmlns="http://www.w3.org/2000/svg">
<path d="M22.1379 20.0189C22.0029 19.8836 21.782 19.8836 21.6469 20.0192L20.8901 20.7789C20.7551 20.9145 20.7551 21.1362 20.8901 21.2718L25.7792 26.1793C25.914 26.3148 26.1351 26.3148 26.2699 26.1793L27.027 25.4195C27.1621 25.284 27.1621 25.0622 27.027 24.9267L22.1379 20.0189Z" fill="#1D6E71"/>
<path d="M25.0227 21.2718L25.7792 22.0315C25.9143 22.167 26.1352 22.167 26.2702 22.0315L31.9775 16.3025C32.1123 16.1669 32.3334 16.1669 32.4682 16.3025L34.8619 18.7053C34.997 18.8406 34.997 19.0626 34.8619 19.1979L33.2869 20.7789C33.1516 20.9145 33.1516 21.1362 33.2867 21.2718L34.0435 22.0315C34.1785 22.167 34.3994 22.167 34.5345 22.0315L37.3573 19.1981C37.4924 19.0626 37.4924 18.8408 37.3573 18.7053L32.4685 13.7975C32.3334 13.662 32.1125 13.662 31.9775 13.7975L25.0227 20.7789C24.8876 20.9145 24.8876 21.1362 25.0227 21.2718Z" fill="#00474F"/>
<path d="M25.7787 17.8834C25.9138 18.019 26.1347 18.019 26.2698 17.8834L27.0266 17.1237C27.1616 16.9882 27.1616 16.7664 27.0266 16.6309L21.3193 10.9018C21.1843 10.7663 21.1843 10.5445 21.3193 10.409L23.7128 8.00641C23.8478 7.87111 24.0687 7.87111 24.2038 8.00641L26.5975 10.4092C26.7325 10.5448 26.7325 10.7665 26.5975 10.9021L25.0225 12.4828C24.8874 12.6184 24.8874 12.8401 25.0225 12.9757L25.779 13.7354C25.9141 13.871 26.135 13.871 26.27 13.7354L29.0928 10.9021C29.2279 10.7665 29.2279 10.5448 29.0928 10.4092L24.204 5.5015C24.069 5.3662 23.8481 5.3662 23.713 5.5015L18.824 10.4092C18.6889 10.5448 18.6889 10.7665 18.824 10.9021L25.7787 17.8834Z" fill="#1D6E71"/>
<path d="M22.8944 16.6308L22.1378 15.8713C22.0028 15.7358 21.7819 15.7358 21.6468 15.8713L16.758 20.7788C16.623 20.9144 16.623 21.1361 16.758 21.2719L17.5146 22.0314C17.6496 22.167 17.8705 22.167 18.0056 22.0314L22.8944 17.1237C23.0295 16.9881 23.0295 16.7664 22.8944 16.6308Z" fill="#00474F"/>
<path d="M17.5144 26.1793C17.6494 26.3146 17.8703 26.3146 18.0054 26.1793L18.7619 25.4196C18.897 25.284 18.897 25.0623 18.7619 24.9267L13.055 19.198C12.9199 19.0624 12.9199 18.8407 13.055 18.7051L15.4484 16.3023C15.5834 16.167 15.8043 16.167 15.9394 16.3023L17.5144 17.8835C17.6494 18.0191 17.8703 18.0191 18.0054 17.8835L18.7619 17.1238C18.897 16.988 18.897 16.7663 18.7619 16.6307L15.9391 13.7974C15.8043 13.6618 15.5832 13.6618 15.4484 13.7974L10.5596 18.7048C10.4245 18.8401 10.4245 19.0621 10.5593 19.1974L17.5144 26.1793Z" fill="#1D6E71"/>
<path d="M22.8944 24.9266L22.1378 24.1671C22.0028 24.0315 21.7819 24.0315 21.6468 24.1671L15.9396 29.8961C15.8045 30.0317 15.5837 30.0317 15.4486 29.8961L13.0552 27.4933C12.9201 27.3577 12.9201 27.136 13.0552 27.0004L14.6302 25.4197C14.7652 25.2841 14.7652 25.0624 14.6302 24.9268L13.8733 24.1671C13.7383 24.0315 13.5174 24.0315 13.3823 24.1671L10.5598 27.0004C10.4247 27.136 10.4247 27.3577 10.5598 27.4936L15.4486 32.401C15.5837 32.5366 15.8045 32.5366 15.9396 32.401L22.8944 25.4194C23.0295 25.2841 23.0295 25.0621 22.8944 24.9266Z" fill="#00474F"/>
<path d="M22.1378 28.3152C22.0027 28.1796 21.7818 28.1796 21.6468 28.3152L20.8899 29.0749C20.7549 29.2105 20.7549 29.4322 20.8899 29.5678L26.5972 35.2968C26.7322 35.4321 26.7322 35.6541 26.5972 35.7894L24.2038 38.1922C24.0687 38.3275 23.8478 38.3275 23.7128 38.1922L21.3193 35.7894C21.1843 35.6541 21.1843 35.4321 21.3193 35.2965L22.8943 33.7155C23.0291 33.5802 23.0291 33.3582 22.8943 33.2226L22.1375 32.4632C22.0027 32.3276 21.7816 32.3276 21.6468 32.4632L18.824 35.2968C18.6889 35.4321 18.6889 35.6541 18.824 35.7894L23.7128 40.6971C23.8478 40.8324 24.0687 40.8324 24.2038 40.6971L29.0926 35.7894C29.2276 35.6541 29.2276 35.4321 29.0926 35.2968L22.1378 28.3152Z" fill="#1D6E71"/>
<path d="M25.0219 29.5677L25.7785 30.3272C25.9136 30.4627 26.1344 30.4627 26.2695 30.3272L31.1586 25.4194C31.2936 25.2839 31.2936 25.0621 31.1586 24.9266L30.4018 24.1671C30.2667 24.0315 30.0458 24.0315 29.9108 24.1671L25.0219 29.0748C24.8869 29.2101 24.8869 29.4319 25.0219 29.5677Z" fill="#1D6E71"/>
<path d="M30.4016 20.0192C30.2665 19.8839 30.0456 19.8839 29.9106 20.0194L29.154 20.7789C29.019 20.9145 29.019 21.1362 29.154 21.2718L34.8613 27.0005C34.9963 27.1361 34.9963 27.3578 34.8613 27.4934L32.4678 29.8962C32.3328 30.0315 32.1119 30.0315 31.9768 29.8962L30.4016 28.3149C30.2665 28.1796 30.0456 28.1796 29.9106 28.3149L29.154 29.0747C29.019 29.2102 29.019 29.432 29.154 29.5675L31.9768 32.4011C32.1119 32.5367 32.3328 32.5367 32.4678 32.4011L37.3566 27.4937C37.4917 27.3581 37.4917 27.1364 37.3566 27.0008L30.4016 20.0192Z" fill="#1D6E71"/>
</svg>
