<svg width="540" height="420" viewBox="0 0 540 420" fill="none" xmlns="http://www.w3.org/2000/svg">
<path d="M540 369.09H0V369.372H540V369.09Z" fill="#E6E6E6"/>
<path d="M134.806 386.146H99.0361V386.429H134.806V386.146Z" fill="#E6E6E6"/>
<path d="M87.7176 386.146H66.9924V386.429H87.7176V386.146Z" fill="#E6E6E6"/>
<path d="M227.394 390.295H206.669V390.577H227.394V390.295Z" fill="#E6E6E6"/>
<path d="M335.459 396.585H288.814V396.868H335.459V396.585Z" fill="#E6E6E6"/>
<path d="M279.202 396.585H272.365V396.868H279.202V396.585Z" fill="#E6E6E6"/>
<path d="M489.618 390.295H388.444V390.577H489.618V390.295Z" fill="#E6E6E6"/>
<path d="M255.96 318.81H47.4228C45.7892 318.807 44.2234 318.128 43.0692 316.921C41.9151 315.714 41.2668 314.079 41.2668 312.373V6.38072C41.2811 4.68523 41.9356 3.06407 43.0882 1.86937C44.2408 0.674663 45.7985 0.00290445 47.4228 0H255.96C257.596 0 259.164 0.678191 260.321 1.88538C261.477 3.09257 262.127 4.72986 262.127 6.43708V312.373C262.127 314.081 261.477 315.718 260.321 316.925C259.164 318.132 257.596 318.81 255.96 318.81ZM47.4228 0.225468C45.8608 0.228454 44.3637 0.878268 43.2602 2.03228C42.1566 3.18629 41.5368 4.75019 41.5368 6.38072V312.373C41.5368 314.004 42.1566 315.568 43.2602 316.722C44.3637 317.876 45.8608 318.526 47.4228 318.529H255.96C257.523 318.526 259.021 317.876 260.127 316.722C261.232 315.569 261.854 314.005 261.857 312.373V6.38072C261.854 4.74916 261.232 3.18528 260.127 2.03159C259.021 0.877901 257.523 0.228448 255.96 0.225468H47.4228Z" fill="#E6E6E6"/>
<path d="M489.575 318.81H281.027C279.392 318.807 277.825 318.128 276.669 316.922C275.514 315.715 274.863 314.08 274.86 312.373V6.38072C274.877 4.68421 275.534 3.06306 276.688 1.86866C277.843 0.674269 279.402 0.00287278 281.027 0H489.575C491.197 0.00586721 492.752 0.678937 493.903 1.87332C495.053 3.06771 495.706 4.68718 495.72 6.38072V312.373C495.72 314.077 495.073 315.711 493.922 316.917C492.77 318.124 491.207 318.804 489.575 318.81ZM281.027 0.225468C279.464 0.228448 277.966 0.877901 276.86 2.03159C275.755 3.18528 275.133 4.74916 275.13 6.38072V312.373C275.133 314.005 275.755 315.569 276.86 316.722C277.966 317.876 279.464 318.526 281.027 318.529H489.575C491.138 318.526 492.636 317.876 493.741 316.722C494.847 315.569 495.469 314.005 495.472 312.373V6.38072C495.469 4.74916 494.847 3.18528 493.741 2.03159C492.636 0.877901 491.138 0.228448 489.575 0.225468H281.027Z" fill="#E6E6E6"/>
<path d="M288.792 272.793H265.043V371.13H288.792V272.793Z" fill="#E0E0E0"/>
<path d="M284.278 371.13H288.792V357.737H279.547L284.278 371.13Z" fill="#FAFAFA"/>
<path d="M184.723 272.793H160.974V371.13H184.723V272.793Z" fill="#E0E0E0"/>
<path d="M288.792 272.793H180.792V362.912H288.792V272.793Z" fill="#FAFAFA"/>
<path d="M284.872 277.223V301.066H184.68V277.223H284.839H284.872ZM285.26 276.783H184.291V301.495H285.293V276.783H285.26Z" fill="#E0E0E0"/>
<path d="M185.296 371.13H180.792V357.737H190.026L185.296 371.13Z" fill="#FAFAFA"/>
<path d="M232.405 289.139C232.405 289.632 232.545 290.113 232.807 290.523C233.07 290.933 233.442 291.252 233.879 291.441C234.315 291.629 234.795 291.679 235.258 291.582C235.721 291.486 236.146 291.249 236.48 290.901C236.813 290.552 237.041 290.108 237.133 289.625C237.225 289.142 237.178 288.641 236.997 288.186C236.816 287.73 236.51 287.341 236.118 287.067C235.725 286.794 235.264 286.648 234.792 286.648C234.159 286.648 233.552 286.91 233.104 287.377C232.657 287.845 232.405 288.478 232.405 289.139Z" fill="#E6E6E6"/>
<path d="M284.872 305.925V329.768H184.68V305.925H284.839H284.872ZM285.26 305.497H184.291V330.208H285.293V305.508L285.26 305.497Z" fill="#E0E0E0"/>
<path d="M232.405 317.909C232.405 318.401 232.545 318.883 232.807 319.293C233.07 319.702 233.442 320.022 233.879 320.21C234.315 320.399 234.795 320.448 235.258 320.352C235.721 320.256 236.146 320.019 236.48 319.67C236.813 319.322 237.041 318.878 237.133 318.395C237.225 317.911 237.178 317.41 236.997 316.955C236.816 316.5 236.51 316.111 236.118 315.837C235.725 315.563 235.264 315.417 234.792 315.417C234.159 315.417 233.552 315.68 233.104 316.147C232.657 316.614 232.405 317.248 232.405 317.909Z" fill="#E6E6E6"/>
<path d="M284.872 334.638V358.493H184.68V334.638H284.839H284.872ZM285.26 334.199H184.291V358.921H285.293V334.199H285.26Z" fill="#E0E0E0"/>
<path d="M232.405 346.565C232.407 347.058 232.549 347.538 232.813 347.946C233.076 348.355 233.45 348.672 233.886 348.859C234.322 349.046 234.802 349.094 235.264 348.996C235.726 348.899 236.151 348.661 236.483 348.312C236.816 347.963 237.042 347.519 237.134 347.036C237.225 346.553 237.177 346.053 236.996 345.598C236.815 345.143 236.509 344.755 236.117 344.482C235.725 344.208 235.264 344.063 234.792 344.063C234.478 344.063 234.166 344.127 233.876 344.253C233.586 344.379 233.322 344.564 233.1 344.796C232.879 345.029 232.703 345.305 232.584 345.608C232.464 345.912 232.404 346.237 232.405 346.565Z" fill="#E6E6E6"/>
<path d="M170.219 215.682H146.47V371.141H170.219V215.682Z" fill="#E0E0E0"/>
<path d="M165.704 371.13H170.219V357.737H160.985L165.704 371.13Z" fill="#FAFAFA"/>
<path d="M81.4643 215.682H57.7151V371.141H81.4643V215.682Z" fill="#E0E0E0"/>
<path d="M170.219 215.682H77.5223V362.923H170.219V215.682Z" fill="#FAFAFA"/>
<path d="M166.223 219.83V253.166H81.5184V219.83H166.223ZM166.72 219.323H81V253.65H166.698V219.334L166.72 219.323Z" fill="#E0E0E0"/>
<path d="M166.223 257.235V345.652H125.874V257.235H166.223ZM166.72 256.717H125.388V346.171H166.72V256.717Z" fill="#E0E0E0"/>
<path d="M121.867 257.235V345.652H81.5184V257.235H121.867ZM122.353 256.717H81V346.171H122.332V256.717H122.353Z" fill="#E0E0E0"/>
<path d="M82.0367 371.13H77.5223V357.737H86.7671L82.0367 371.13Z" fill="#FAFAFA"/>
<path d="M121.478 236.515C121.476 237.01 121.615 237.495 121.877 237.908C122.139 238.321 122.513 238.644 122.951 238.835C123.389 239.026 123.871 239.077 124.337 238.982C124.803 238.887 125.231 238.649 125.568 238.3C125.904 237.95 126.133 237.504 126.227 237.019C126.32 236.533 126.273 236.029 126.092 235.571C125.911 235.113 125.604 234.722 125.209 234.446C124.815 234.171 124.351 234.023 123.876 234.023C123.242 234.023 122.634 234.286 122.184 234.753C121.735 235.219 121.481 235.853 121.478 236.515Z" fill="#E6E6E6"/>
<path d="M130.032 299.341C130.032 299.837 130.173 300.321 130.437 300.733C130.701 301.145 131.076 301.466 131.515 301.655C131.953 301.844 132.436 301.893 132.901 301.795C133.367 301.698 133.794 301.458 134.129 301.107C134.464 300.756 134.691 300.309 134.783 299.823C134.874 299.337 134.825 298.833 134.642 298.376C134.459 297.919 134.15 297.529 133.754 297.255C133.358 296.981 132.894 296.837 132.419 296.839C132.105 296.839 131.793 296.904 131.503 297.03C131.213 297.155 130.949 297.34 130.727 297.572C130.506 297.805 130.33 298.081 130.211 298.385C130.091 298.688 130.031 299.013 130.032 299.341Z" fill="#E6E6E6"/>
<path d="M112.936 299.341C112.938 299.834 113.08 300.314 113.343 300.722C113.607 301.131 113.98 301.448 114.417 301.635C114.853 301.822 115.332 301.87 115.795 301.772C116.257 301.675 116.681 301.437 117.014 301.088C117.347 300.739 117.573 300.295 117.664 299.812C117.755 299.329 117.708 298.829 117.527 298.374C117.346 297.92 117.04 297.531 116.647 297.258C116.255 296.985 115.794 296.839 115.322 296.839C115.008 296.839 114.697 296.904 114.407 297.029C114.116 297.155 113.853 297.34 113.631 297.572C113.409 297.805 113.234 298.081 113.114 298.385C112.995 298.688 112.934 299.013 112.936 299.341Z" fill="#E6E6E6"/>
<path d="M110.235 172.336H100.224C101.146 177.405 101.727 182.536 101.963 187.69C101.963 193.327 94.3378 215.682 105.203 215.682C116.067 215.682 108.443 193.383 108.443 187.69C108.696 182.535 109.295 177.404 110.235 172.336Z" fill="#E0E0E0"/>
<path d="M72.144 195.198V201.962C72.1554 205.588 73.5404 209.062 75.9968 211.626C78.4532 214.19 81.7814 215.636 85.2552 215.648H91.7352C95.209 215.636 98.5373 214.19 100.994 211.626C103.45 209.062 104.835 205.588 104.846 201.962V195.198H72.144Z" fill="#F5F5F5"/>
<path d="M211.324 258.453C211.324 266.344 219.78 272.793 230.116 272.793H239.447C249.782 272.793 258.239 266.344 258.239 258.453H211.324Z" fill="#E0E0E0"/>
<path d="M458.579 246.886C452.92 251.711 445.1 260.538 437.951 272.962C433.177 281.236 430.304 289.872 429.041 301.348C429.041 288.384 429.116 274.461 429.16 261.316C430.596 257.934 433.879 250.133 436.234 243.978C444.085 223.427 447.034 218.365 454.086 200.643C463.514 176.969 473.17 148.944 470.405 151.187C464.767 155.753 443.167 197.971 440.834 204.014C434.476 220.14 430.545 237.195 429.181 254.575C429.181 242.174 429.268 230.901 429.311 222.153C429.462 193.62 429.926 184.41 430.153 181.569C431.028 180.126 432.054 178.446 432.659 177.544C437.735 169.878 439.69 163.362 444.463 151.931C451.246 135.754 457.078 107.018 455.371 108.461C448.265 114.503 442.67 127.468 435.305 144.006C427.939 160.544 430.045 170.047 428.587 184.161C428.285 186.935 428.047 197.396 427.874 211.883C425.974 196.438 422.388 186.27 415.854 177.025C407.819 165.651 400.043 157.974 394.34 153.96C388.638 149.947 404.19 177.882 411.62 190.035C418.241 200.902 424.343 210.473 427.82 219.909C427.637 239.559 427.55 264.428 427.55 287.549C425.844 277.02 423.058 265.668 419.342 256.886C414.871 246.334 408.002 230.145 402.527 224.655C401.22 223.336 408.251 254.823 412.765 263.188C417.28 271.552 420.595 279.455 423.436 284.201C424.094 285.329 426.298 289.579 427.55 292.036C427.55 320.298 427.702 345.235 427.939 353.724H429.106C429.03 351.537 429.008 337.152 429.041 318.123C431.86 307.796 438.296 296.004 443.61 285.25C449.399 273.604 464.238 242.095 458.579 246.886Z" fill="#E0E0E0"/>
<path d="M445.435 371.13H411.588L409.029 336.498H447.995L445.435 371.13Z" fill="#F0F0F0"/>
<path d="M450.511 340.534H406.501L405.248 328.844H451.775L450.511 340.534Z" fill="#F5F5F5"/>
<path d="M134.201 23.1105H73.6667V92.498H134.201V23.1105Z" fill="#E0E0E0"/>
<path d="M140.756 23.1105H78.2245V92.498H140.756V23.1105Z" fill="#F5F5F5"/>
<path d="M135.518 87.0303V28.578L83.4624 28.578V87.0303H135.518Z" fill="white"/>
<path d="M122.893 72.8484V42.7373H96.0769V72.8484H122.893Z" fill="#F5F5F5"/>
<path d="M442.854 31.1934H386.619V95.6544H442.854V31.1934Z" fill="#E0E0E0"/>
<path d="M448.945 31.1934H390.863V95.6544H448.945V31.1934Z" fill="#F5F5F5"/>
<path d="M444.085 90.5702V36.2777H395.733V90.5702H444.085Z" fill="white"/>
<path d="M419.904 79.1727C428.237 79.1727 434.992 72.1217 434.992 63.4239C434.992 54.726 428.237 47.675 419.904 47.675C411.571 47.675 404.816 54.726 404.816 63.4239C404.816 72.1217 411.571 79.1727 419.904 79.1727Z" fill="#F5F5F5"/>
<path d="M197.089 64.4836H152.183V115.958H197.089V64.4836Z" fill="#E0E0E0"/>
<path d="M201.949 64.4836H155.563V115.958H201.949V64.4836Z" fill="#F5F5F5"/>
<path d="M198.061 111.899V68.5421H159.451V111.899H198.061Z" fill="white"/>
<path d="M178.762 79.2517L168.199 98.3488H189.324L178.762 79.2517Z" fill="#F5F5F5"/>
<path d="M270 420C385.649 420 479.401 414.287 479.401 407.239C479.401 400.191 385.649 394.477 270 394.477C154.351 394.477 60.5988 400.191 60.5988 407.239C60.5988 414.287 154.351 420 270 420Z" fill="#F5F5F5"/>
<path d="M377.19 122.237L366.476 117.728C366.476 117.728 352.339 144.637 348.289 146.001C342.781 147.85 331.376 152.991 324.616 153.893C323.698 155.02 322.196 158.526 322.337 159.8C331.42 162.968 351.378 158.763 355.655 155.448C365.386 147.929 377.19 122.237 377.19 122.237Z" fill="#E58A7B"/>
<path d="M380.484 116.116C382.482 123.815 371.66 139.305 371.66 139.305L357.48 131.008C357.48 131.008 360.137 124.638 363.377 118.156C368.572 107.683 378.205 107.334 380.484 116.116Z" fill="#1D6E71"/>
<path opacity="0.2" d="M380.484 116.116C382.482 123.815 371.66 139.305 371.66 139.305L357.48 131.008C357.48 131.008 360.137 124.638 363.377 118.156C368.572 107.683 378.205 107.334 380.484 116.116Z" fill="black"/>
<path opacity="0.2" d="M363.107 134.322L368.69 137.591L369.673 119.7C366.422 122.305 364.133 130.151 363.107 134.322Z" fill="black"/>
<path d="M371.153 110.321C371.153 110.321 360.115 135.957 366.552 183.688H410.044C410.735 176.721 408.445 142.721 416.729 109.893C411.958 108.919 407.131 108.275 402.279 107.965C396.124 107.593 389.954 107.593 383.8 107.965C379.533 108.417 375.306 109.205 371.153 110.321Z" fill="#1D6E71"/>
<path opacity="0.2" d="M371.153 110.321C371.153 110.321 360.115 135.957 366.552 183.688H410.044C410.735 176.721 408.445 142.721 416.729 109.893C411.958 108.919 407.131 108.275 402.279 107.965C396.124 107.593 389.954 107.593 383.8 107.965C379.533 108.417 375.306 109.205 371.153 110.321Z" fill="black"/>
<g style="mix-blend-mode:multiply">
<path d="M361.065 408.253C361 409.471 377.492 410.451 397.893 410.451C418.294 410.451 434.905 409.471 434.97 408.253C435.034 407.036 418.554 406.066 398.142 406.066C377.73 406.066 361.141 407.047 361.065 408.253Z" fill="#E8ECF1"/>
</g>
<path d="M390.096 376.262L382.383 379.379L389.027 397.297L396.741 394.18L390.096 376.262Z" fill="#E58A7B"/>
<path d="M424.494 399.584H416.362L413.381 379.934H421.513L424.494 399.584Z" fill="#E58A7B"/>
<path d="M415.8 398.603H424.937C425.095 398.604 425.248 398.663 425.369 398.77C425.49 398.877 425.57 399.026 425.596 399.189L426.773 406.731C426.798 406.92 426.783 407.113 426.73 407.296C426.677 407.479 426.587 407.647 426.467 407.791C426.346 407.934 426.197 408.048 426.03 408.126C425.862 408.204 425.681 408.244 425.498 408.242C422.312 408.185 420.779 407.982 416.761 407.982C414.288 407.982 409.201 408.253 405.767 408.253C402.332 408.253 402.106 404.736 403.52 404.409C409.871 402.977 412.333 401.027 414.45 399.133C414.823 398.791 415.303 398.602 415.8 398.603Z" fill="#263238"/>
<path d="M388.8 395.694L397.44 393.057C397.594 393.011 397.759 393.022 397.906 393.088C398.053 393.153 398.175 393.27 398.25 393.417L401.49 400.181C401.565 400.353 401.604 400.54 401.603 400.728C401.602 400.917 401.561 401.103 401.484 401.274C401.407 401.445 401.295 401.596 401.156 401.717C401.017 401.837 400.855 401.925 400.68 401.974C397.537 402.876 395.431 403.428 391.5 404.623C388.789 405.446 386.024 406.787 383.346 407.678C381.488 408.298 377.125 408.321 374.868 408.321C371.531 408.321 370.786 404.646 372.222 404.476C375.84 404.059 376.326 404.251 378.324 403.203C381.593 401.711 384.556 399.575 387.05 396.912C387.521 396.352 388.124 395.932 388.8 395.694Z" fill="#263238"/>
<path d="M325.976 153.847L317.034 149.936L313.351 160.284C317.016 160.867 320.745 160.867 324.41 160.284L325.976 153.847Z" fill="#E58A7B"/>
<path d="M310.381 149.665L310.144 156.542L313.351 160.262L317.034 149.913L310.381 149.665Z" fill="#E58A7B"/>
<path d="M391.155 377.784L383.417 380.902L386.844 390.167L394.582 387.049L391.155 377.784Z" fill="#CF6F64"/>
<path d="M421.513 379.934H413.381L414.925 390.069H423.058L421.513 379.934Z" fill="#CF6F64"/>
<path opacity="0.2" d="M365.17 170.78C365.332 172.82 365.515 174.906 365.753 177.048L398.088 166.09C403.138 164.528 407.526 161.216 410.53 156.699C410.659 153.689 410.821 150.522 411.07 147.219C411.178 145.618 411.307 143.972 411.448 142.303C411.588 140.635 411.782 138.786 411.988 137.005L365.17 170.78Z" fill="black"/>
<path d="M375.732 133.803L374.652 133.668C375.289 128.031 379.317 123.59 383.562 123.702V124.83C379.847 124.751 376.304 128.753 375.732 133.803Z" fill="white"/>
<path d="M381.488 144.209H381.305V143.081C385.02 143.228 388.508 139.181 389.081 134.142L390.161 134.277C389.588 139.79 385.69 144.209 381.488 144.209Z" fill="white"/>
<path d="M401.673 86.2412C400.151 92.4528 398.358 103.828 402.278 107.965C402.278 107.965 399.535 114.267 388.487 114.267C378.389 114.267 383.799 107.965 383.799 107.965C390.517 106.319 390.636 101.201 389.75 96.3534L401.673 86.2412Z" fill="#E58A7B"/>
<path d="M396.814 90.3671L389.761 96.3532C389.98 97.4672 390.107 98.5987 390.139 99.7352C392.202 101.877 396.339 96.4547 396.76 93.6815C396.974 92.5896 396.992 91.4659 396.814 90.3671Z" fill="#CF6F64"/>
<path d="M377.633 86.1622C378.124 87.0501 378.785 87.8227 379.574 88.4318C380.364 89.0408 381.266 89.4733 382.223 89.7021C384.815 90.2996 386.111 87.8082 385.398 85.3055C384.761 83.0508 382.633 80.0183 379.998 80.5368C379.434 80.6582 378.905 80.919 378.457 81.2974C378.009 81.6757 377.655 82.1607 377.423 82.7115C377.191 83.2624 377.089 83.8632 377.126 84.4635C377.163 85.0639 377.336 85.6464 377.633 86.1622Z" fill="#CF6F64"/>
<path d="M381.92 66.2873C377.881 68.215 376.456 84.9672 381.532 87.4473C386.608 89.9275 389.567 62.6234 381.92 66.2873Z" fill="#263238"/>
<path d="M402.905 76.8954C401.933 85.3053 401.825 90.2543 397.505 94.5608C396.166 95.9898 394.475 97.005 392.619 97.4941C390.762 97.9832 388.812 97.9272 386.984 97.3324C385.156 96.7375 383.521 95.627 382.26 94.1233C380.998 92.6196 380.159 90.7813 379.836 88.8113C378.529 81.2582 380.333 68.7786 388.411 65.4304C390.108 64.6489 391.975 64.3556 393.818 64.5807C395.66 64.8059 397.412 65.5414 398.89 66.7109C400.369 67.8805 401.521 69.4416 402.226 71.2324C402.932 73.0231 403.167 74.9784 402.905 76.8954Z" fill="#E58A7B"/>
<path d="M389.631 70.6388C395.615 69.0493 400.01 67.9671 398.433 73.1641C396.349 80.1084 393.843 86.8274 397.202 87.1317C399.254 87.3234 408.326 83.3101 407.171 79.2404C406.166 75.7006 410.411 74.7311 411.167 72.9386C413.964 66.4451 405.961 67.3019 407.387 63.3562C408.812 59.4106 400.907 53.0524 396.587 56.2202C389.556 61.3383 377.492 61.2594 383.832 52.8382C388.379 46.8295 380.268 48.0583 380.268 48.0583C380.268 48.0583 385.171 51.0909 376.92 55.7806C368.193 60.7859 376.196 74.235 389.631 70.6388Z" fill="#263238"/>
<path d="M406.08 86.1622C404.899 87.9463 403.124 89.208 401.101 89.7021C398.434 90.2996 397.408 87.8082 398.412 85.3055C399.308 83.0508 401.771 80.0183 404.32 80.5368C406.868 81.0554 407.452 83.9527 406.08 86.1622Z" fill="#E58A7B"/>
<path d="M366.552 183.688C366.552 183.688 359.251 251.892 358.678 277.775C358.095 304.696 383.421 388.694 383.421 388.694L396.381 383.057C396.381 383.057 381.261 306.308 383.421 279.872C385.711 251.046 395.172 183.733 395.172 183.733L366.552 183.688Z" fill="#1D6E71"/>
<path opacity="0.2" d="M384.696 202.413C378.875 215.017 382.795 239.942 385.949 254.71C387.147 244.282 388.573 232.964 389.923 222.491C389.794 206.392 388.595 193.958 384.696 202.413Z" fill="black"/>
<path d="M395.809 378.593C395.874 378.593 397.343 382.899 397.343 382.899L382.395 389.46L380.041 384.883L395.809 378.593Z" fill="#1D6E71"/>
<path d="M381.985 183.688C381.985 183.688 387.569 248.555 391.262 272.849C395.323 299.465 411.242 388.108 411.242 388.108H426.135C426.135 388.108 417.215 301.619 415.53 275.261C413.694 246.672 410.043 183.688 410.043 183.688H381.985Z" fill="#1D6E71"/>
<path d="M426.362 384.06C426.427 384.06 426.859 388.401 426.859 388.401H410.486L409.32 383.418L426.362 384.06Z" fill="#1D6E71"/>
<path opacity="0.2" d="M420.66 378.92C420.626 378.92 420.594 378.908 420.568 378.885C420.542 378.862 420.525 378.831 420.52 378.796C420.433 378.007 412.387 299.882 410.875 276.208C409.234 250.528 405.929 193.563 405.897 192.988C405.895 192.97 405.897 192.951 405.903 192.933C405.909 192.915 405.918 192.899 405.931 192.885C405.943 192.872 405.957 192.861 405.974 192.853C405.99 192.846 406.008 192.842 406.026 192.842C406.062 192.842 406.096 192.856 406.122 192.881C406.148 192.906 406.164 192.94 406.167 192.977C406.167 193.552 409.504 250.471 411.145 276.197C412.657 299.871 420.703 377.939 420.779 378.785C420.782 378.803 420.781 378.822 420.777 378.841C420.772 378.859 420.764 378.876 420.753 378.891C420.742 378.906 420.728 378.918 420.712 378.927C420.696 378.936 420.678 378.941 420.66 378.942V378.92Z" fill="black"/>
<path d="M390.55 79.2404C390.55 79.928 390.139 80.4804 389.707 80.4804C389.275 80.4804 388.962 79.928 389.005 79.2404C389.048 78.5527 389.416 78.0003 389.848 78.0003C390.28 78.0003 390.593 78.564 390.55 79.2404Z" fill="#263238"/>
<path d="M383.141 79.2404C383.141 79.928 382.72 80.4804 382.298 80.4804C381.877 80.4804 381.553 79.928 381.586 79.2404C381.618 78.5527 382.007 78.0003 382.439 78.0003C382.871 78.0003 383.184 78.564 383.141 79.2404Z" fill="#263238"/>
<path d="M385.474 79.5898C384.572 81.6896 383.41 83.6568 382.018 85.4406C383.098 86.5679 385.117 86.0494 385.117 86.0494L385.474 79.5898Z" fill="#DF5753"/>
<path d="M385.668 88.9242C385.643 88.9242 385.618 88.9189 385.595 88.9086C385.572 88.8982 385.551 88.8831 385.534 88.8641C385.517 88.8451 385.504 88.8226 385.495 88.798C385.486 88.7735 385.483 88.7473 385.484 88.7212C385.487 88.6664 385.51 88.6148 385.548 88.577C385.586 88.5392 385.637 88.5182 385.689 88.5183C386.515 88.5243 387.332 88.337 388.08 87.9702C388.827 87.6035 389.487 87.0666 390.009 86.3989C390.047 86.3648 390.095 86.346 390.144 86.346C390.194 86.346 390.242 86.3648 390.279 86.3989C390.314 86.4367 390.334 86.4873 390.334 86.5398C390.334 86.5924 390.314 86.6429 390.279 86.6808C389.72 87.3903 389.015 87.9601 388.217 88.3483C387.419 88.7365 386.548 88.9333 385.668 88.9242Z" fill="#263238"/>
<path d="M391.867 77.1661C391.815 77.1938 391.758 77.2083 391.7 77.2083C391.642 77.2083 391.584 77.1938 391.532 77.1661C391.128 76.8935 390.669 76.7239 390.19 76.671C389.712 76.6181 389.228 76.6835 388.778 76.8617C388.734 76.8846 388.687 76.8981 388.638 76.9014C388.589 76.9047 388.54 76.8977 388.493 76.8809C388.447 76.8641 388.405 76.8378 388.368 76.8035C388.332 76.7692 388.302 76.7277 388.282 76.6814C388.241 76.581 388.24 76.4683 388.279 76.3673C388.317 76.2662 388.392 76.1847 388.487 76.1402C389.051 75.8995 389.663 75.8046 390.271 75.8635C390.878 75.9223 391.463 76.1333 391.975 76.4784C392.017 76.5078 392.052 76.5455 392.079 76.5893C392.107 76.633 392.125 76.682 392.134 76.7334C392.143 76.7848 392.143 76.8376 392.132 76.8886C392.121 76.9397 392.101 76.988 392.072 77.0308C392.018 77.0955 391.947 77.1424 391.867 77.1661Z" fill="#263238"/>
<path d="M380.279 74.9114C380.221 74.8969 380.169 74.8656 380.128 74.8213C380.092 74.7845 380.063 74.7407 380.044 74.6923C380.024 74.6439 380.014 74.5919 380.014 74.5394C380.014 74.4869 380.024 74.435 380.044 74.3866C380.063 74.3382 380.092 74.2943 380.128 74.2576C380.542 73.773 381.057 73.3947 381.634 73.1522C382.211 72.9097 382.834 72.8096 383.454 72.8597C383.504 72.8677 383.551 72.8863 383.594 72.9142C383.636 72.9422 383.673 72.979 383.701 73.0223C383.73 73.0657 383.749 73.1146 383.759 73.1661C383.768 73.2177 383.767 73.2707 383.757 73.3219C383.733 73.4263 383.675 73.5183 383.591 73.5805C383.507 73.6428 383.405 73.6711 383.303 73.6601C382.812 73.6278 382.321 73.7126 381.866 73.9079C381.411 74.1032 381.005 74.404 380.679 74.7874C380.629 74.8445 380.566 74.8863 380.495 74.9081C380.425 74.93 380.35 74.9312 380.279 74.9114Z" fill="#263238"/>
<path d="M420.909 120.986L409.677 117.863C409.677 117.863 398.661 146.17 394.762 148.008C389.47 150.533 376.067 159.281 370.365 163.419C370.051 164.828 370.3 168.559 371.013 169.585C380.733 167.736 399.341 160.262 403.229 156.463C412.096 147.794 420.909 120.986 420.909 120.986Z" fill="#E58A7B"/>
<path d="M413.068 400.091C412.52 400.137 411.974 399.981 411.523 399.652C411.384 399.52 411.28 399.354 411.222 399.168C411.163 398.982 411.152 398.784 411.189 398.592C411.195 398.472 411.233 398.356 411.298 398.257C411.362 398.158 411.452 398.079 411.556 398.028C412.463 397.543 415.001 399.223 415.293 399.415C415.325 399.435 415.349 399.466 415.363 399.503C415.377 399.54 415.378 399.58 415.368 399.618C415.359 399.657 415.34 399.693 415.314 399.723C415.287 399.753 415.254 399.775 415.217 399.787C414.513 399.967 413.792 400.07 413.068 400.091ZM411.988 398.333C411.906 398.314 411.821 398.314 411.739 398.333C411.698 398.355 411.664 398.389 411.641 398.431C411.618 398.473 411.607 398.521 411.61 398.569C411.581 398.701 411.586 398.837 411.624 398.966C411.662 399.095 411.731 399.211 411.826 399.302C412.247 399.697 413.305 399.742 414.699 399.46C413.869 398.89 412.935 398.506 411.955 398.333H411.988Z" fill="#1D6E71"/>
<path d="M415.163 399.787C415.135 399.796 415.105 399.796 415.077 399.787C414.267 399.313 412.744 397.453 412.971 396.506C413.004 396.356 413.086 396.222 413.201 396.126C413.317 396.03 413.46 395.977 413.608 395.976C413.753 395.956 413.9 395.969 414.04 396.014C414.18 396.058 414.309 396.134 414.418 396.236C415.314 397.036 415.368 399.494 415.368 399.618C415.373 399.655 415.367 399.693 415.349 399.725C415.331 399.758 415.304 399.784 415.271 399.798C415.235 399.806 415.197 399.802 415.163 399.787ZM413.716 396.348H413.64C413.392 396.348 413.359 396.495 413.349 396.551C413.219 397.104 414.18 398.513 414.979 399.178C414.976 398.226 414.693 397.297 414.169 396.518C414.044 396.403 413.882 396.343 413.716 396.348Z" fill="#1D6E71"/>
<path d="M384.394 398.682C383.733 398.923 383.013 398.923 382.352 398.682C382.202 398.597 382.075 398.474 381.983 398.324C381.89 398.175 381.835 398.003 381.823 397.825C381.809 397.714 381.823 397.601 381.863 397.496C381.902 397.392 381.967 397.299 382.05 397.228C382.914 396.416 386.446 397.228 386.845 397.386C386.883 397.396 386.917 397.419 386.94 397.452C386.964 397.485 386.976 397.525 386.975 397.566C386.976 397.608 386.966 397.65 386.945 397.686C386.924 397.722 386.893 397.751 386.856 397.769C386.061 398.144 385.237 398.449 384.394 398.682ZM382.633 397.341C382.51 397.366 382.394 397.425 382.298 397.51C382.264 397.537 382.238 397.573 382.222 397.615C382.207 397.657 382.203 397.702 382.212 397.746C382.219 397.865 382.254 397.979 382.315 398.08C382.375 398.18 382.459 398.263 382.558 398.321C383.13 398.637 384.458 398.389 386.176 397.634C385.019 397.329 383.821 397.23 382.633 397.341Z" fill="#1D6E71"/>
<path d="M386.823 397.769H386.737C385.657 397.566 383.497 396.269 383.432 395.3C383.432 395.074 383.529 394.759 384.048 394.578C384.223 394.513 384.409 394.486 384.594 394.497C384.78 394.509 384.961 394.56 385.128 394.646C386.294 395.244 386.91 397.408 386.942 397.51C386.95 397.544 386.949 397.579 386.939 397.613C386.93 397.646 386.912 397.677 386.888 397.701C386.872 397.729 386.85 397.752 386.823 397.769ZM384.264 394.917H384.156C383.821 395.041 383.821 395.187 383.821 395.232C383.821 395.819 385.387 396.89 386.478 397.25C386.227 396.345 385.695 395.552 384.966 394.996C384.749 394.88 384.499 394.852 384.264 394.917Z" fill="#1D6E71"/>
<path d="M371.282 162.753L360.018 168.165L358.711 171.547L362.869 174.466C362.869 174.466 370.645 173.587 372.859 168.367L371.282 162.753Z" fill="#E58A7B"/>
<path d="M371.758 169.777C371.506 167.517 370.791 165.341 369.662 163.396L371.444 161.998C372.785 164.239 373.64 166.76 373.95 169.382L371.758 169.777Z" fill="#263238"/>
<path d="M373.68 164.354C373.918 164.745 374.035 165.203 374.015 165.666C373.995 166.129 373.839 166.574 373.568 166.941C373.297 167.308 372.924 167.578 372.5 167.716C372.076 167.854 371.622 167.853 371.2 167.711C370.777 167.57 370.406 167.297 370.137 166.928C369.869 166.559 369.716 166.113 369.699 165.65C369.682 165.187 369.802 164.73 370.043 164.34C370.284 163.951 370.634 163.649 371.045 163.475C371.506 163.229 372.042 163.184 372.536 163.349C373.029 163.513 373.44 163.875 373.68 164.354Z" fill="#263238"/>
<path d="M352.404 172.539L353.905 174.117L364.014 169.608L360.018 168.165L352.404 172.539Z" fill="#E58A7B"/>
<path opacity="0.2" d="M395.809 378.593C395.874 378.593 397.343 382.899 397.343 382.899L382.395 389.46L380.041 384.883L395.809 378.593Z" fill="black"/>
<path opacity="0.2" d="M426.362 384.06C426.427 384.06 426.859 388.401 426.859 388.401H410.486L409.32 383.418L426.362 384.06Z" fill="black"/>
<path d="M423.835 117.739C426.805 127.738 415.195 141.413 415.195 141.413L399.157 134.581C401.058 128.802 403.25 123.131 405.723 117.592C410.648 106.511 420.833 107.649 423.835 117.739Z" fill="#1D6E71"/>
<path opacity="0.2" d="M423.835 117.739C426.805 127.738 415.195 141.413 415.195 141.413L399.157 134.581C401.058 128.802 403.25 123.131 405.723 117.592C410.648 106.511 420.833 107.649 423.835 117.739Z" fill="black"/>
<path d="M264.47 17.5526H257.569V18.7137H264.47V17.5526Z" fill="#1D6E71"/>
<path d="M353.806 63.5101L352.971 82.858L354.082 82.9103L354.917 63.5623L353.806 63.5101Z" fill="#1D6E71"/>
<path d="M351.659 22.7609H224.219L212.36 299.77H339.8L351.659 22.7609Z" fill="#1D6E71"/>
<path opacity="0.56" d="M347.857 26.5712H220.417L208.559 303.58H335.999L347.857 26.5712Z" fill="#FAFAFA"/>
<path opacity="0.07" d="M344.056 30.3704H216.616L204.746 307.379H332.186L344.056 30.3704Z" fill="#1D6E71"/>
<path d="M329.551 151.187H220.774L219.866 172.381H328.644L329.551 151.187Z" fill="white"/>
<path d="M280.595 135.72H221.432L221.033 145.201H280.195L280.595 135.72Z" fill="#1D6E71"/>
<path d="M327.099 208.388H218.322L217.415 229.582H326.192L327.099 208.388Z" fill="white"/>
<path opacity="0.47" d="M307.152 258.205H234.004L232.913 283.604H306.061L307.152 258.205Z" fill="#1D6E71"/>
<path d="M302.259 287.549H229.111C229.079 287.558 229.046 287.558 229.014 287.549C229.003 287.516 229.003 287.481 229.014 287.448L230.094 262.038C230.094 262.02 230.097 262.003 230.104 261.987C230.11 261.972 230.12 261.957 230.132 261.946C230.145 261.934 230.159 261.925 230.175 261.92C230.19 261.914 230.207 261.912 230.223 261.914H303.372C303.385 261.907 303.4 261.903 303.415 261.903C303.43 261.903 303.445 261.907 303.458 261.914C303.466 261.927 303.47 261.943 303.47 261.959C303.47 261.975 303.466 261.99 303.458 262.004L302.4 287.47C302.387 287.497 302.367 287.519 302.341 287.533C302.316 287.547 302.288 287.553 302.259 287.549ZM229.241 287.279H302.13L303.21 262.139H230.321L229.241 287.279Z" fill="white"/>
<path d="M267.818 192.921H218.981L218.581 202.413H267.408L267.818 192.921Z" fill="#1D6E71"/>
<path d="M305.759 82.7238C305.479 88.8919 303.378 94.8185 299.743 99.6902C297.052 103.37 293.589 106.357 289.62 108.423C285.651 110.488 281.282 111.577 276.847 111.606C273.263 111.635 269.712 110.897 266.412 109.439C263.111 107.98 260.132 105.832 257.657 103.126C255.182 100.42 253.264 97.2142 252.021 93.7054C250.779 90.1966 250.237 86.4593 250.43 82.7238C250.81 74.9722 254.012 67.665 259.383 62.2963C264.753 56.9276 271.885 53.9032 279.32 53.8415C282.907 53.8066 286.462 54.5397 289.766 55.9956C293.071 57.4515 296.054 59.5992 298.532 62.306C301.01 65.0129 302.929 68.2213 304.172 71.7331C305.415 75.245 305.955 78.9856 305.759 82.7238Z" fill="white"/>
<path d="M308.362 59.884C308.291 61.5241 307.732 63.1004 306.763 64.3934C306.046 65.3707 305.124 66.1642 304.069 66.7132C303.013 67.2622 301.851 67.5522 300.672 67.5612C299.529 67.5684 298.402 67.2835 297.389 66.7313C296.377 66.1791 295.509 65.3764 294.862 64.3934C294.005 63.065 293.58 61.4838 293.652 59.884C293.756 57.826 294.609 55.887 296.036 54.4625C297.463 53.038 299.356 52.2353 301.331 52.2181C302.283 52.2091 303.227 52.4037 304.105 52.79C304.983 53.1763 305.775 53.7461 306.434 54.4642C307.093 55.1824 307.604 56.0338 307.935 56.9659C308.267 57.898 308.412 58.8911 308.362 59.884Z" fill="#1D6E71"/>
<path d="M232.492 161.784C232.44 162.692 232.06 163.546 231.429 164.174C230.797 164.802 229.961 165.156 229.09 165.166C228.669 165.171 228.251 165.086 227.863 164.916C227.475 164.746 227.124 164.495 226.833 164.178C226.541 163.861 226.315 163.485 226.168 163.073C226.021 162.662 225.957 162.223 225.979 161.784C226.026 160.874 226.404 160.016 227.037 159.388C227.669 158.759 228.508 158.406 229.381 158.402C229.802 158.398 230.218 158.484 230.606 158.655C230.993 158.825 231.344 159.076 231.635 159.393C231.926 159.71 232.152 160.085 232.3 160.496C232.447 160.907 232.512 161.345 232.492 161.784Z" fill="#263238"/>
<path d="M247.05 161.784C247.001 162.693 246.621 163.549 245.99 164.177C245.358 164.805 244.521 165.159 243.648 165.166C243.228 165.17 242.812 165.083 242.425 164.913C242.038 164.742 241.688 164.491 241.398 164.174C241.108 163.857 240.882 163.482 240.736 163.071C240.59 162.66 240.526 162.222 240.548 161.784C240.595 160.875 240.972 160.02 241.602 159.391C242.232 158.763 243.068 158.409 243.94 158.402C244.36 158.397 244.778 158.482 245.166 158.651C245.554 158.821 245.905 159.072 246.197 159.389C246.488 159.706 246.714 160.082 246.861 160.494C247.008 160.906 247.072 161.345 247.05 161.784Z" fill="#263238"/>
<path d="M261.619 161.784C261.57 162.693 261.191 163.549 260.559 164.177C259.927 164.805 259.09 165.159 258.217 165.166C257.797 165.169 257.38 165.083 256.992 164.913C256.605 164.743 256.255 164.491 255.964 164.175C255.672 163.858 255.446 163.483 255.299 163.072C255.152 162.66 255.086 162.222 255.107 161.784C255.156 160.874 255.535 160.019 256.167 159.391C256.799 158.763 257.636 158.409 258.509 158.402C258.93 158.397 259.347 158.482 259.735 158.651C260.124 158.821 260.474 159.072 260.766 159.389C261.057 159.706 261.283 160.082 261.43 160.494C261.577 160.906 261.641 161.345 261.619 161.784Z" fill="#263238"/>
<path d="M230.04 218.985C229.988 219.893 229.608 220.747 228.977 221.375C228.345 222.003 227.51 222.357 226.638 222.367C226.217 222.37 225.801 222.284 225.413 222.114C225.026 221.943 224.676 221.692 224.384 221.376C224.093 221.059 223.867 220.684 223.72 220.272C223.572 219.861 223.507 219.423 223.528 218.985C223.577 218.075 223.956 217.22 224.588 216.592C225.22 215.963 226.057 215.61 226.93 215.603C227.35 215.599 227.767 215.685 228.154 215.856C228.542 216.026 228.892 216.277 229.183 216.594C229.474 216.911 229.7 217.286 229.848 217.697C229.995 218.108 230.061 218.546 230.04 218.985Z" fill="#263238"/>
<path d="M244.598 218.985C244.549 219.892 244.171 220.746 243.542 221.374C242.912 222.002 242.078 222.357 241.207 222.367C240.786 222.372 240.369 222.287 239.98 222.117C239.592 221.947 239.242 221.696 238.95 221.379C238.658 221.062 238.432 220.686 238.286 220.274C238.139 219.862 238.074 219.424 238.097 218.985C238.146 218.075 238.525 217.22 239.157 216.592C239.789 215.963 240.626 215.61 241.499 215.603C241.919 215.599 242.335 215.685 242.722 215.856C243.109 216.026 243.458 216.278 243.749 216.595C244.039 216.911 244.264 217.287 244.41 217.698C244.556 218.109 244.62 218.547 244.598 218.985Z" fill="#263238"/>
<path d="M259.2 218.985C259.15 219.894 258.771 220.75 258.139 221.378C257.508 222.006 256.67 222.36 255.798 222.367C255.378 222.369 254.962 222.282 254.575 222.111C254.188 221.94 253.839 221.688 253.548 221.372C253.257 221.056 253.031 220.681 252.883 220.271C252.735 219.86 252.668 219.423 252.687 218.985C252.739 218.076 253.119 217.222 253.75 216.595C254.382 215.967 255.218 215.613 256.089 215.603C256.51 215.598 256.928 215.683 257.316 215.852C257.704 216.022 258.055 216.274 258.346 216.591C258.638 216.907 258.864 217.284 259.011 217.695C259.158 218.107 259.222 218.546 259.2 218.985Z" fill="#263238"/>
<path d="M273.737 218.985C273.685 219.893 273.305 220.747 272.674 221.375C272.042 222.003 271.206 222.357 270.335 222.367C269.915 222.369 269.499 222.282 269.112 222.111C268.725 221.94 268.376 221.688 268.085 221.372C267.794 221.056 267.568 220.681 267.42 220.271C267.272 219.86 267.205 219.423 267.224 218.985C267.276 218.076 267.656 217.222 268.287 216.595C268.919 215.967 269.754 215.613 270.626 215.603C271.047 215.599 271.464 215.685 271.851 215.856C272.239 216.026 272.589 216.277 272.88 216.594C273.171 216.911 273.397 217.286 273.545 217.697C273.692 218.108 273.757 218.546 273.737 218.985Z" fill="#263238"/>
<path d="M288.36 218.985C288.308 219.893 287.928 220.747 287.297 221.375C286.665 222.003 285.83 222.357 284.958 222.367C284.537 222.372 284.119 222.287 283.731 222.117C283.343 221.947 282.992 221.696 282.701 221.379C282.409 221.062 282.183 220.686 282.036 220.274C281.89 219.862 281.825 219.424 281.847 218.985C281.897 218.075 282.276 217.22 282.908 216.592C283.54 215.963 284.377 215.61 285.249 215.603C285.67 215.599 286.087 215.685 286.474 215.856C286.862 216.026 287.212 216.277 287.503 216.594C287.794 216.911 288.02 217.286 288.168 217.697C288.315 218.108 288.38 218.546 288.36 218.985Z" fill="#263238"/>
<path d="M286.15 81.2195C290.67 76.6053 290.91 69.2092 286.685 64.6999C282.461 60.1906 275.372 60.2757 270.851 64.89C266.331 69.5042 266.091 76.9003 270.316 81.4096C274.54 85.9189 281.629 85.8338 286.15 81.2195Z" fill="#1D6E71"/>
<path d="M299.743 99.6902C297.052 103.37 293.59 106.357 289.621 108.423C285.652 110.489 281.282 111.577 276.847 111.606C272.547 111.644 268.303 110.577 264.491 108.499C260.679 106.421 257.416 103.396 254.988 99.6902C260.237 94.2339 268.542 90.6716 277.744 90.6716C286.945 90.6716 294.959 94.2339 299.743 99.6902Z" fill="#1D6E71"/>
<path opacity="0.1" d="M286.15 81.2195C290.67 76.6053 290.91 69.2092 286.685 64.6999C282.461 60.1906 275.372 60.2757 270.851 64.89C266.331 69.5042 266.091 76.9003 270.316 81.4096C274.54 85.9189 281.629 85.8338 286.15 81.2195Z" fill="white"/>
<path opacity="0.1" d="M299.743 99.6902C297.052 103.37 293.59 106.357 289.621 108.423C285.652 110.489 281.282 111.577 276.847 111.606C272.547 111.644 268.303 110.577 264.491 108.499C260.679 106.421 257.416 103.396 254.988 99.6902C260.237 94.2339 268.542 90.6716 277.744 90.6716C286.945 90.6716 294.959 94.2339 299.743 99.6902Z" fill="white"/>
<path d="M140.843 177.488C139.817 179.833 138.737 182.414 137.797 184.917C136.858 187.42 135.896 190.001 135.065 192.572C133.367 197.637 132.074 202.84 131.199 208.129L130.961 209.786C130.938 210.07 130.964 210.356 131.037 210.631C131.291 211.566 131.693 212.45 132.225 213.247C133.611 215.311 135.22 217.202 137.02 218.884C138.917 220.725 140.907 222.46 142.981 224.081C145.055 225.749 147.237 227.372 149.386 228.906L147.366 232.862C142.234 230.528 137.363 227.614 132.84 224.171C130.427 222.334 128.249 220.182 126.36 217.767C125.24 216.33 124.367 214.702 123.779 212.954C123.437 211.862 123.262 210.72 123.26 209.572C123.26 209.301 123.26 208.907 123.26 208.715V208.163L123.369 207.035C123.988 201.162 125.171 195.368 126.9 189.742C127.743 186.969 128.639 184.207 129.665 181.512C130.691 178.818 131.749 176.18 133.056 173.441L140.843 177.488Z" fill="#E58A7B"/>
<path d="M147.863 228.206L155.498 224.171L153.522 232.919C153.522 232.919 148.284 234.452 145.854 231.791L147.863 228.206Z" fill="#E58A7B"/>
<path d="M162.486 225.602L160.455 232.84L153.522 232.919L155.498 224.171L162.486 225.602Z" fill="#E58A7B"/>
<path d="M173.264 135.28C173.673 136.842 174.241 138.354 174.96 139.789C174.75 140.038 174.48 140.223 174.177 140.324C173.875 140.425 173.552 140.439 173.243 140.364L173.264 135.28Z" fill="#DF5753"/>
<path d="M173.038 135.348C173.485 135.348 173.848 134.767 173.848 134.051C173.848 133.335 173.485 132.755 173.038 132.755C172.59 132.755 172.228 133.335 172.228 134.051C172.228 134.767 172.59 135.348 173.038 135.348Z" fill="#263238"/>
<path d="M172.8 132.801L174.442 132.315C174.442 132.315 173.642 133.647 172.8 132.801Z" fill="#263238"/>
<path d="M152.172 143.555C153.155 148.797 154.137 158.413 150.617 161.919C150.617 161.919 151.999 167.24 161.341 167.24C171.612 167.24 166.244 161.919 166.244 161.919C160.639 160.521 160.779 156.181 161.762 152.1L152.172 143.555Z" fill="#E58A7B"/>
<path d="M149.44 131.605C149.958 140.364 150.001 144.085 154.235 148.583C160.618 155.347 170.813 152.776 172.811 144.073C174.614 136.182 173.47 123.195 165.251 119.712C163.447 118.936 161.483 118.653 159.545 118.891C157.607 119.128 155.759 119.878 154.176 121.068C152.593 122.259 151.328 123.852 150.499 125.695C149.67 127.539 149.305 129.573 149.44 131.605Z" fill="#E58A7B"/>
<path d="M150.271 121.752C146.059 123.353 140.443 122.158 142.646 135.72C144.979 150.082 141.394 154.806 141.394 154.806C141.394 154.806 157.367 158.357 173.675 154.591C173.675 154.591 168.696 145.505 170.089 138.809C171.871 130.354 170.467 127.231 170.467 127.231C170.467 127.231 156.19 119.497 150.271 121.752Z" fill="#263238"/>
<path d="M168.091 136.171C168.095 137.836 168.552 139.466 169.409 140.872C170.553 142.698 171.903 141.999 172.238 140.06C172.541 138.358 172.314 135.348 170.856 134.175C169.398 133.003 168.113 134.153 168.091 136.171Z" fill="#E58A7B"/>
<path d="M146.61 123.229C145.4 119.678 151.168 114.21 163.372 116.465C175.576 118.72 176.105 129.328 176.105 129.328L173.642 126.262L173.75 129.486L161.212 132L146.61 123.229Z" fill="#263238"/>
<path d="M147.647 162.517C147.575 162.002 147.698 161.478 147.991 161.057C148.283 160.636 148.722 160.351 149.213 160.262C153.014 159.608 161.654 158.278 165.996 158.909C169.236 159.383 170.078 161.344 170.219 162.956C170.241 163.239 170.205 163.522 170.113 163.789C170.021 164.055 169.875 164.298 169.686 164.501C169.497 164.704 169.268 164.862 169.015 164.965C168.763 165.068 168.492 165.114 168.221 165.098L149.45 164.219C149.008 164.196 148.587 164.013 148.258 163.703C147.929 163.393 147.713 162.974 147.647 162.517Z" fill="#1D6E71"/>
<path opacity="0.6" d="M147.647 162.517C147.575 162.002 147.698 161.478 147.991 161.057C148.283 160.636 148.722 160.351 149.213 160.262C153.014 159.608 161.654 158.278 165.996 158.909C169.236 159.383 170.078 161.344 170.219 162.956C170.241 163.239 170.205 163.522 170.113 163.789C170.021 164.055 169.875 164.298 169.686 164.501C169.497 164.704 169.268 164.862 169.015 164.965C168.763 165.068 168.492 165.114 168.221 165.098L149.45 164.219C149.008 164.196 148.587 164.013 148.258 163.703C147.929 163.393 147.713 162.974 147.647 162.517Z" fill="black"/>
<path d="M158.501 359.462L165.467 364.513L177.12 348.02L170.154 342.98L158.501 359.462Z" fill="#E58A7B"/>
<path d="M142.258 359.135L149.612 363.509L159.926 346.069L152.572 341.695L142.258 359.135Z" fill="#E58A7B"/>
<path d="M177.109 348.02L171.104 356.52L164.138 351.481L170.143 342.98L177.109 348.02Z" fill="#CF6F64"/>
<path d="M152.561 341.695L159.926 346.081L154.613 355.065L147.247 350.68L152.561 341.695Z" fill="#CF6F64"/>
<path d="M164.376 217.576C164.376 217.576 191.57 253.346 186.462 287.561C182.347 315.192 158.479 352.608 158.479 352.608L147.258 346.791C155.167 330.247 161.917 313.127 167.454 295.565C169.162 290.112 169.66 284.326 168.912 278.643C168.163 272.96 166.188 267.529 163.134 262.759C149.353 241.757 127.278 254.259 142.128 217.576H164.376Z" fill="#1D6E71"/>
<path opacity="0.6" d="M164.376 217.576C164.376 217.576 191.57 253.346 186.462 287.561C182.347 315.192 158.479 352.608 158.479 352.608L147.258 346.791C155.167 330.247 161.917 313.127 167.454 295.565C169.162 290.112 169.66 284.326 168.912 278.643C168.163 272.96 166.188 267.529 163.134 262.759C149.353 241.757 127.278 254.259 142.128 217.576H164.376Z" fill="black"/>
<path opacity="0.4" d="M177.714 240.551L173.761 236.447C173.761 236.774 181.418 286.118 183.567 299.984C184.836 295.933 185.807 291.788 186.473 287.583C189 270.797 183.719 253.65 177.714 240.551Z" fill="black"/>
<path d="M176.515 217.576C176.515 217.576 209.261 262.534 210.19 289.488C210.956 312.035 174.55 355.719 174.55 355.719L163.966 348.572C163.966 348.572 185.274 317.548 190.642 292.205C188.568 267.088 144.72 217.576 144.72 217.576H176.515Z" fill="#1D6E71"/>
<path opacity="0.6" d="M176.515 217.576C176.515 217.576 209.261 262.534 210.19 289.488C210.956 312.035 174.55 355.719 174.55 355.719L163.966 348.572C163.966 348.572 185.274 317.548 190.642 292.205C188.568 267.088 144.72 217.576 144.72 217.576H176.515Z" fill="black"/>
<path d="M136.004 163.926C132.505 164.794 129.146 178.074 129.146 178.074L142.83 187.611C142.83 187.611 147.387 177.104 145.789 172.505C144.137 167.714 140.4 162.832 136.004 163.926Z" fill="#1D6E71"/>
<path opacity="0.2" d="M138.683 172.482L137.732 184.06L142.819 187.622C144.224 184.322 145.263 180.865 145.919 177.318L138.683 172.482Z" fill="black"/>
<path d="M180.565 164.185C180.565 164.185 184.604 165.662 176.515 217.564H142.106C142.689 202.909 142.7 193.89 136.004 163.926C140.822 162.889 145.706 162.219 150.617 161.919C155.819 161.53 161.042 161.53 166.244 161.919C172.962 162.562 180.565 164.185 180.565 164.185Z" fill="#1D6E71"/>
<path d="M184.064 172.482C184.842 174.737 185.663 177.161 186.527 179.494C187.391 181.828 188.212 184.229 189.086 186.597L191.732 193.676L192.402 195.446L192.748 196.325L192.91 196.765C192.91 196.844 192.91 196.844 192.91 196.833C192.712 196.542 192.454 196.303 192.154 196.134C191.726 195.871 191.245 195.721 190.75 195.694C190.338 195.681 189.929 195.762 189.551 195.931C189.054 196.168 189.054 196.269 189.065 196.258C189.155 196.183 189.234 196.095 189.302 195.998C189.9 195.179 190.418 194.299 190.847 193.372C191.354 192.335 191.84 191.23 192.326 190.114C193.277 187.859 194.152 185.526 195.026 183.169C195.901 180.813 196.733 178.435 197.543 176.033L200.005 168.841L204.163 169.968C203.342 175.109 202.284 180.114 201.01 185.21C200.394 187.746 199.67 190.26 198.85 192.797C198.439 194.071 197.986 195.333 197.467 196.63C196.927 198.037 196.261 199.388 195.48 200.666C195.193 201.096 194.875 201.503 194.53 201.883C193.978 202.505 193.309 203 192.564 203.337C191.903 203.634 191.187 203.772 190.469 203.743C189.664 203.712 188.88 203.468 188.19 203.033C187.376 202.503 186.701 201.771 186.224 200.902C186.062 200.609 185.922 200.316 185.825 200.102L185.62 199.674L185.209 198.794L184.388 197.047C183.308 194.702 182.228 192.335 181.289 189.956C180.349 187.577 179.356 185.165 178.427 182.741C177.498 180.317 176.666 177.893 175.878 175.278L184.064 172.482Z" fill="#E58A7B"/>
<path d="M180.565 164.185C184.701 165.211 189.356 177.972 189.356 177.972L177.055 188.896C177.055 188.896 169.095 174.985 170.705 170.397C172.379 165.617 175.165 162.844 180.565 164.185Z" fill="#1D6E71"/>
<path d="M201.96 164.805L206.28 161.04L209.283 165.921L207.068 169.991C207.068 169.991 203.548 173.373 200.437 171.648C199.944 170.49 199.825 169.195 200.1 167.96C200.375 166.725 201.028 165.618 201.96 164.805Z" fill="#E58A7B"/>
<path d="M214.078 161.051L213.754 162.28L206.917 163.475L206.248 161.04L214.078 161.051Z" fill="#E58A7B"/>
<path d="M175.392 356.294L163.058 347.975L165.272 343.961L179.129 352.856L175.392 356.294Z" fill="#1D6E71"/>
<path d="M154.44 362.923C153.358 362.785 152.318 362.4 151.394 361.796C151.356 361.782 151.323 361.756 151.3 361.722C151.276 361.687 151.264 361.646 151.264 361.604C151.264 361.562 151.276 361.521 151.3 361.486C151.323 361.452 151.356 361.426 151.394 361.412C151.729 361.3 154.634 360.364 155.477 361.085C155.571 361.168 155.643 361.275 155.685 361.396C155.727 361.516 155.737 361.647 155.714 361.773C155.699 361.976 155.635 362.172 155.527 362.341C155.419 362.511 155.272 362.649 155.099 362.743C154.896 362.858 154.67 362.92 154.44 362.923ZM152.01 361.683C153.36 362.404 154.44 362.664 154.958 362.393C155.071 362.328 155.166 362.234 155.234 362.119C155.302 362.005 155.341 361.874 155.347 361.739C155.347 361.559 155.347 361.48 155.25 361.435C154.796 361.052 153.176 361.345 151.988 361.683H152.01Z" fill="#263238"/>
<path d="M151.47 361.875C151.413 361.874 151.359 361.849 151.319 361.807C151.303 361.776 151.294 361.741 151.294 361.705C151.294 361.67 151.303 361.635 151.319 361.604C151.319 361.503 152.021 359.056 153.122 358.504C153.263 358.437 153.416 358.402 153.571 358.402C153.725 358.402 153.878 358.437 154.019 358.504C154.17 358.554 154.302 358.655 154.392 358.792C154.482 358.929 154.525 359.093 154.516 359.259C154.44 360.274 152.464 361.672 151.556 361.908L151.47 361.875ZM153.565 358.797C153.46 358.8 153.357 358.827 153.263 358.876C152.593 359.214 152.042 360.533 151.772 361.333C152.723 360.916 154.03 359.812 154.073 359.191C154.073 359.09 154.073 358.966 153.824 358.853C153.744 358.808 153.656 358.777 153.565 358.763V358.797Z" fill="#263238"/>
<path d="M169.851 367.793C168.631 367.793 166.935 366.158 166.007 365.155C165.983 365.121 165.97 365.079 165.97 365.037C165.97 364.994 165.983 364.953 166.007 364.918C166.028 364.882 166.058 364.852 166.094 364.832C166.13 364.813 166.171 364.803 166.212 364.806C166.644 364.806 170.391 365.392 170.921 366.497C170.977 366.596 171.006 366.709 171.006 366.824C171.006 366.939 170.977 367.051 170.921 367.15C170.841 367.322 170.721 367.471 170.572 367.581C170.423 367.692 170.249 367.761 170.067 367.782L169.851 367.793ZM166.719 365.313C168.08 366.688 169.279 367.455 169.959 367.365C170.079 367.348 170.192 367.302 170.29 367.229C170.388 367.156 170.467 367.06 170.521 366.948C170.545 366.909 170.558 366.864 170.558 366.818C170.558 366.772 170.545 366.727 170.521 366.688C170.24 366.079 168.242 365.561 166.719 365.313Z" fill="#263238"/>
<path d="M166.838 365.257C166.596 365.264 166.353 365.245 166.115 365.2C166.081 365.195 166.05 365.181 166.023 365.159C165.997 365.137 165.976 365.109 165.964 365.076C165.947 365.043 165.939 365.006 165.939 364.969C165.939 364.932 165.947 364.895 165.964 364.862C166.028 364.783 167.486 362.946 168.869 362.822C169.26 362.79 169.648 362.919 169.949 363.182C170.37 363.566 170.348 363.904 170.24 364.118C169.97 364.885 168.102 365.257 166.838 365.257ZM166.558 364.839C167.767 364.907 169.7 364.49 169.949 363.938C169.949 363.938 170.035 363.757 169.754 363.509C169.643 363.408 169.512 363.331 169.371 363.285C169.23 363.238 169.081 363.223 168.934 363.239C168.002 363.51 167.173 364.073 166.558 364.851V364.839Z" fill="#263238"/>
<path d="M151.761 360.657L142.603 357.951C142.445 357.901 142.275 357.914 142.126 357.987C141.976 358.06 141.858 358.188 141.793 358.346L138.704 365.595C138.632 365.78 138.598 365.98 138.604 366.18C138.611 366.381 138.658 366.577 138.743 366.757C138.828 366.937 138.948 367.097 139.096 367.224C139.243 367.352 139.416 367.446 139.601 367.5C142.841 368.379 144.396 368.627 148.424 369.834C150.908 370.555 154.451 371.897 157.874 372.911C161.298 373.926 162.443 370.442 161.114 369.698C155.109 366.384 154.634 364.062 152.993 361.581C152.699 361.132 152.263 360.805 151.761 360.657Z" fill="#1D6E71"/>
<path d="M166.255 363.836L158.436 358.199C158.303 358.099 158.14 358.052 157.977 358.069C157.813 358.085 157.662 358.164 157.55 358.29L152.366 364.107C152.24 364.257 152.146 364.434 152.09 364.625C152.034 364.816 152.018 365.018 152.042 365.216C152.067 365.415 152.132 365.605 152.232 365.775C152.333 365.946 152.467 366.092 152.626 366.204C155.38 368.131 156.805 368.909 160.25 371.401C162.41 372.934 166.59 376.338 169.506 378.458C172.422 380.577 174.593 377.669 173.556 376.519C168.912 371.344 167.897 368.097 167.13 365.155C166.997 364.621 166.687 364.154 166.255 363.836Z" fill="#1D6E71"/>
<path d="M159.916 353.352L145.822 346.036L147.28 342.045L162.335 349.756L159.916 353.352Z" fill="#1D6E71"/>
<path d="M141.588 215.456L140.4 218.703C140.281 218.951 140.562 219.21 140.961 219.21H176.688C177.001 219.21 177.26 219.052 177.282 218.85L177.584 215.625C177.584 215.411 177.336 215.22 177.001 215.22H142.149C142.044 215.209 141.939 215.225 141.841 215.267C141.743 215.308 141.656 215.373 141.588 215.456Z" fill="#1D6E71"/>
<path opacity="0.4" d="M141.588 215.456L140.4 218.703C140.281 218.951 140.562 219.21 140.961 219.21H176.688C177.001 219.21 177.26 219.052 177.282 218.85L177.584 215.625C177.584 215.411 177.336 215.22 177.001 215.22H142.149C142.044 215.209 141.939 215.225 141.841 215.267C141.743 215.308 141.656 215.373 141.588 215.456Z" fill="white"/>
<path d="M147.215 219.526H146.275C146.091 219.526 145.951 219.424 145.962 219.3L146.405 215.118C146.405 215.005 146.577 214.904 146.761 214.904H147.701C147.884 214.904 148.025 215.005 148.014 215.118L147.571 219.3C147.56 219.424 147.398 219.526 147.215 219.526Z" fill="#1D6E71"/>
<path d="M169.247 219.526H168.318C168.134 219.526 167.994 219.424 168.005 219.3L168.437 215.118C168.437 215.005 168.62 214.904 168.804 214.904H169.733C169.916 214.904 170.068 215.005 170.046 215.118L169.614 219.3C169.56 219.424 169.441 219.526 169.247 219.526Z" fill="#1D6E71"/>
<g style="mix-blend-mode:multiply">
<path d="M146.394 410.44C162.373 410.44 175.327 409.461 175.327 408.253C175.327 407.045 162.373 406.066 146.394 406.066C130.415 406.066 117.461 407.045 117.461 408.253C117.461 409.461 130.415 410.44 146.394 410.44Z" fill="#F5F5F5"/>
</g>
<path d="M164.019 405.164C158.9 403.608 153.219 401.613 149.785 399.528C149.688 399.46 149.58 399.426 149.483 399.37V375.177H159.84C160.626 375.128 161.365 374.768 161.905 374.17C162.445 373.572 162.746 372.781 162.746 371.959C162.746 371.136 162.445 370.345 161.905 369.747C161.365 369.149 160.626 368.789 159.84 368.74H149.537V258.464H143.316V368.74H133.023C132.603 368.714 132.182 368.778 131.786 368.928C131.391 369.078 131.029 369.311 130.722 369.612C130.416 369.914 130.172 370.277 130.005 370.681C129.838 371.084 129.752 371.519 129.752 371.959C129.752 372.398 129.838 372.833 130.005 373.236C130.172 373.64 130.416 374.003 130.722 374.305C131.029 374.606 131.391 374.839 131.786 374.989C132.182 375.139 132.603 375.203 133.023 375.177H143.316V399.336C143.219 399.336 143.121 399.426 143.024 399.494C139.536 401.613 133.898 403.608 128.779 405.13C128.433 405.24 128.136 405.474 127.942 405.792C127.748 406.11 127.669 406.49 127.72 406.864C127.771 407.237 127.948 407.579 128.219 407.827C128.491 408.076 128.839 408.215 129.2 408.219H163.598C163.943 408.195 164.27 408.047 164.524 407.802C164.777 407.556 164.943 407.227 164.992 406.869C165.041 406.512 164.972 406.148 164.795 405.837C164.618 405.527 164.344 405.289 164.019 405.164Z" fill="#E0E0E0"/>
<path d="M165.607 247.236H127.202C124.113 247.236 121.608 249.85 121.608 253.076V264.991C121.608 268.217 124.113 270.831 127.202 270.831H165.607C168.697 270.831 171.202 268.217 171.202 264.991V253.076C171.202 249.85 168.697 247.236 165.607 247.236Z" fill="#1D6E71"/>
<path d="M126.846 270.842V272.894C126.846 274.585 128.606 275.96 130.766 275.96H162.086C164.246 275.96 166.007 274.585 166.007 272.894V270.842H126.846Z" fill="#1D6E71"/>
<path opacity="0.3" d="M126.846 270.842V272.894C126.846 274.585 128.606 275.96 130.766 275.96H162.086C164.246 275.96 166.007 274.585 166.007 272.894V270.842H126.846Z" fill="white"/>
</svg>
