<svg width="60" height="19" viewBox="0 0 60 19" fill="none" xmlns="http://www.w3.org/2000/svg">
<path d="M10.6523 13.6055C10.6523 12.8555 10.3867 12.2773 9.85547 11.8711C9.33203 11.4648 8.38281 11.0547 7.00781 10.6406C5.63281 10.2266 4.53906 9.76562 3.72656 9.25781C2.17188 8.28125 1.39453 7.00781 1.39453 5.4375C1.39453 4.0625 1.95312 2.92969 3.07031 2.03906C4.19531 1.14844 5.65234 0.703125 7.44141 0.703125C8.62891 0.703125 9.6875 0.921875 10.6172 1.35938C11.5469 1.79687 12.2773 2.42188 12.8086 3.23438C13.3398 4.03906 13.6055 4.93359 13.6055 5.91797H10.6523C10.6523 5.02734 10.3711 4.33203 9.80859 3.83203C9.25391 3.32422 8.45703 3.07031 7.41797 3.07031C6.44922 3.07031 5.69531 3.27734 5.15625 3.69141C4.625 4.10547 4.35938 4.68359 4.35938 5.42578C4.35938 6.05078 4.64844 6.57422 5.22656 6.99609C5.80469 7.41016 6.75781 7.81641 8.08594 8.21484C9.41406 8.60547 10.4805 9.05469 11.2852 9.5625C12.0898 10.0625 12.6797 10.6406 13.0547 11.2969C13.4297 11.9453 13.6172 12.707 13.6172 13.582C13.6172 15.0039 13.0703 16.1367 11.9766 16.9805C10.8906 17.8164 9.41406 18.2344 7.54688 18.2344C6.3125 18.2344 5.17578 18.0078 4.13672 17.5547C3.10547 17.0938 2.30078 16.4609 1.72266 15.6562C1.15234 14.8516 0.867188 13.9141 0.867188 12.8438H3.83203C3.83203 13.8125 4.15234 14.5625 4.79297 15.0938C5.43359 15.625 6.35156 15.8906 7.54688 15.8906C8.57812 15.8906 9.35156 15.6836 9.86719 15.2695C10.3906 14.8477 10.6523 14.293 10.6523 13.6055ZM23.5195 18C23.3945 17.7578 23.2852 17.3633 23.1914 16.8164C22.2852 17.7617 21.1758 18.2344 19.8633 18.2344C18.5898 18.2344 17.5508 17.8711 16.7461 17.1445C15.9414 16.418 15.5391 15.5195 15.5391 14.4492C15.5391 13.0977 16.0391 12.0625 17.0391 11.3438C18.0469 10.6172 19.4844 10.2539 21.3516 10.2539H23.0977V9.42188C23.0977 8.76562 22.9141 8.24219 22.5469 7.85156C22.1797 7.45312 21.6211 7.25391 20.8711 7.25391C20.2227 7.25391 19.6914 7.41797 19.2773 7.74609C18.8633 8.06641 18.6562 8.47656 18.6562 8.97656H15.8086C15.8086 8.28125 16.0391 7.63281 16.5 7.03125C16.9609 6.42188 17.5859 5.94531 18.375 5.60156C19.1719 5.25781 20.0586 5.08594 21.0352 5.08594C22.5195 5.08594 23.7031 5.46094 24.5859 6.21094C25.4688 6.95312 25.9219 8 25.9453 9.35156V15.0703C25.9453 16.2109 26.1055 17.1211 26.4258 17.8008V18H23.5195ZM20.3906 15.9492C20.9531 15.9492 21.4805 15.8125 21.9727 15.5391C22.4727 15.2656 22.8477 14.8984 23.0977 14.4375V12.0469H21.5625C20.5078 12.0469 19.7148 12.2305 19.1836 12.5977C18.6523 12.9648 18.3867 13.4844 18.3867 14.1562C18.3867 14.7031 18.5664 15.1406 18.9258 15.4688C19.293 15.7891 19.7812 15.9492 20.3906 15.9492ZM40.0547 11.7891C40.0547 13.7578 39.6133 15.3242 38.7305 16.4883C37.8555 17.6523 36.6484 18.2344 35.1094 18.2344C33.625 18.2344 32.4688 17.6992 31.6406 16.6289L31.5 18H28.9219V0H31.7695V6.53906C32.5898 5.57031 33.6953 5.08594 35.0859 5.08594C36.6328 5.08594 37.8477 5.66016 38.7305 6.80859C39.6133 7.95703 40.0547 9.5625 40.0547 11.625V11.7891ZM37.207 11.543C37.207 10.168 36.9648 9.13672 36.4805 8.44922C35.9961 7.76172 35.293 7.41797 34.3711 7.41797C33.1367 7.41797 32.2695 7.95703 31.7695 9.03516V14.2617C32.2773 15.3633 33.1523 15.9141 34.3945 15.9141C35.2852 15.9141 35.9727 15.582 36.457 14.918C36.9414 14.2539 37.1914 13.25 37.207 11.9062V11.543ZM45.2578 6.70312C46.1875 5.625 47.3633 5.08594 48.7852 5.08594C51.4883 5.08594 52.8594 6.62891 52.8984 9.71484V18H50.0508V9.82031C50.0508 8.94531 49.8594 8.32812 49.4766 7.96875C49.1016 7.60156 48.5469 7.41797 47.8125 7.41797C46.6719 7.41797 45.8203 7.92578 45.2578 8.94141V18H42.4102V0H45.2578V6.70312ZM58.8164 18H55.9688V5.32031H58.8164V18ZM55.793 2.02734C55.793 1.58984 55.9297 1.22656 56.2031 0.9375C56.4844 0.648437 56.8828 0.503906 57.3984 0.503906C57.9141 0.503906 58.3125 0.648437 58.5938 0.9375C58.875 1.22656 59.0156 1.58984 59.0156 2.02734C59.0156 2.45703 58.875 2.81641 58.5938 3.10547C58.3125 3.38672 57.9141 3.52734 57.3984 3.52734C56.8828 3.52734 56.4844 3.38672 56.2031 3.10547C55.9297 2.81641 55.793 2.45703 55.793 2.02734Z" fill="#1D6E71"/>
</svg>
