<svg width="80" height="80" viewBox="0 0 80 80" fill="none" xmlns="http://www.w3.org/2000/svg">
<path d="M0 40C0 17.9086 17.9086 0 40 0C62.0914 0 80 17.9086 80 40C80 62.0914 62.0914 80 40 80C17.9086 80 0 62.0914 0 40Z" fill="#BFBFBF"/>
<path d="M58.561 53.4719C57.5504 51.0782 56.0839 48.9039 54.2431 47.0701C52.4079 45.231 50.234 43.7648 47.8413 42.7522C47.8199 42.7415 47.7985 42.7362 47.777 42.7255C51.1145 40.3147 53.2842 36.3879 53.2842 31.9576C53.2842 24.6183 47.3377 18.6719 39.9985 18.6719C32.6592 18.6719 26.7127 24.6183 26.7127 31.9576C26.7127 36.3879 28.8824 40.3147 32.2199 42.7308C32.1985 42.7415 32.177 42.7469 32.1556 42.7576C29.7556 43.7701 27.602 45.2219 25.7538 47.0755C23.9148 48.9106 22.4485 51.0846 21.436 53.4772C20.4413 55.8197 19.9048 58.3311 19.8556 60.8755C19.8542 60.9326 19.8642 60.9895 19.8851 61.0428C19.906 61.096 19.9373 61.1445 19.9773 61.1855C20.0172 61.2264 20.0649 61.2589 20.1177 61.2811C20.1704 61.3033 20.227 61.3148 20.2842 61.3147H23.4985C23.7342 61.3147 23.9217 61.1272 23.927 60.8969C24.0342 56.7612 25.6949 52.888 28.6306 49.9522C31.6681 46.9147 35.702 45.2433 39.9985 45.2433C44.2949 45.2433 48.3288 46.9147 51.3663 49.9522C54.302 52.888 55.9627 56.7612 56.0699 60.8969C56.0753 61.1326 56.2628 61.3147 56.4985 61.3147H59.7128C59.7699 61.3148 59.8266 61.3033 59.8793 61.2811C59.932 61.2589 59.9797 61.2264 60.0196 61.1855C60.0596 61.1445 60.0909 61.096 60.1118 61.0428C60.1327 60.9895 60.1428 60.9326 60.1413 60.8755C60.0878 58.3147 59.5574 55.8237 58.561 53.4719ZM39.9985 41.1719C37.5395 41.1719 35.2252 40.2129 33.4842 38.4719C31.7431 36.7308 30.7842 34.4165 30.7842 31.9576C30.7842 29.4987 31.7431 27.1844 33.4842 25.4433C35.2252 23.7022 37.5395 22.7433 39.9985 22.7433C42.4574 22.7433 44.7717 23.7022 46.5127 25.4433C48.2538 27.1844 49.2127 29.4987 49.2127 31.9576C49.2127 34.4165 48.2538 36.7308 46.5127 38.4719C44.7717 40.2129 42.4574 41.1719 39.9985 41.1719Z" fill="white"/>
</svg>
