<svg width="28" height="36" viewBox="0 0 28 36" fill="none" xmlns="http://www.w3.org/2000/svg">
<path d="M12.1382 15.0189C12.0031 14.8836 11.7822 14.8836 11.6472 15.0192L10.8904 15.7789C10.7553 15.9145 10.7553 16.1362 10.8904 16.2718L15.7794 21.1793C15.9142 21.3148 16.1354 21.3148 16.2702 21.1793L17.0273 20.4195C17.1623 20.284 17.1623 20.0622 17.0273 19.9267L12.1382 15.0189Z" fill="#1D6E71"/>
<path d="M15.0227 16.2718L15.7792 17.0315C15.9143 17.167 16.1352 17.167 16.2702 17.0315L21.9775 11.3025C22.1123 11.1669 22.3334 11.1669 22.4682 11.3025L24.8619 13.7053C24.997 13.8406 24.997 14.0626 24.8619 14.1979L23.2869 15.7789C23.1516 15.9145 23.1516 16.1362 23.2867 16.2718L24.0435 17.0315C24.1785 17.167 24.3994 17.167 24.5345 17.0315L27.3573 14.1981C27.4924 14.0626 27.4924 13.8408 27.3573 13.7053L22.4685 8.79754C22.3334 8.66197 22.1125 8.66197 21.9775 8.79754L15.0227 15.7789C14.8876 15.9145 14.8876 16.1362 15.0227 16.2718Z" fill="#00474F"/>
<path d="M15.7792 12.8834C15.9143 13.019 16.1352 13.019 16.2702 12.8834L17.0271 12.1237C17.1621 11.9882 17.1621 11.7664 17.0271 11.6309L11.3198 5.90184C11.1848 5.76627 11.1848 5.54454 11.3198 5.40896L13.7132 3.00641C13.8483 2.87111 14.0692 2.87111 14.2043 3.00641L16.5979 5.40923C16.733 5.54481 16.733 5.76654 16.5979 5.90211L15.023 7.48284C14.8879 7.61841 14.8879 7.84014 15.023 7.97572L15.7795 8.73543C15.9146 8.871 16.1355 8.871 16.2705 8.73543L19.0933 5.90211C19.2284 5.76654 19.2284 5.54481 19.0933 5.40923L14.2045 0.501504C14.0695 0.366198 13.8486 0.366198 13.7135 0.501504L8.82444 5.40923C8.68938 5.54481 8.68938 5.76654 8.82444 5.90211L15.7792 12.8834Z" fill="#1D6E71"/>
<path d="M12.8944 11.6308L12.1378 10.8713C12.0028 10.7358 11.7819 10.7358 11.6468 10.8713L6.75803 15.7788C6.62297 15.9144 6.62297 16.1361 6.75803 16.2719L7.51459 17.0314C7.64965 17.167 7.87053 17.167 8.00559 17.0314L12.8944 12.1237C13.0295 11.9881 13.0295 11.7664 12.8944 11.6308Z" fill="#00474F"/>
<path d="M7.51462 21.1793C7.64968 21.3146 7.87057 21.3146 8.00563 21.1793L8.76218 20.4196C8.89724 20.284 8.89724 20.0623 8.76218 19.9267L3.05521 14.198C2.92015 14.0624 2.92015 13.8407 3.05521 13.7051L5.44863 11.3023C5.58369 11.167 5.80458 11.167 5.93964 11.3023L7.51462 12.8835C7.64968 13.0191 7.87057 13.0191 8.00563 12.8835L8.76218 12.1238C8.89724 11.988 8.89724 11.7663 8.76218 11.6307L5.93937 8.79736C5.80458 8.66178 5.58342 8.66178 5.44863 8.79736L0.559825 13.7048C0.424765 13.8401 0.424765 14.0621 0.559556 14.1974L7.51462 21.1793Z" fill="#1D6E71"/>
<path d="M12.8944 19.9266L12.1378 19.1671C12.0028 19.0315 11.7819 19.0315 11.6468 19.1671L5.9396 24.8961C5.80454 25.0317 5.58366 25.0317 5.4486 24.8961L3.05518 22.4933C2.92012 22.3577 2.92012 22.136 3.05518 22.0004L4.63016 20.4197C4.76522 20.2841 4.76522 20.0624 4.63016 19.9268L3.87334 19.1671C3.73828 19.0315 3.5174 19.0315 3.38234 19.1671L0.559791 22.0004C0.424731 22.136 0.424731 22.3577 0.559791 22.4936L5.4486 27.401C5.58366 27.5366 5.80454 27.5366 5.9396 27.401L12.8944 20.4194C13.0295 20.2841 13.0295 20.0621 12.8944 19.9266Z" fill="#00474F"/>
<path d="M12.1383 23.3152C12.0032 23.1796 11.7823 23.1796 11.6473 23.3152L10.8904 24.0749C10.7554 24.2105 10.7554 24.4322 10.8904 24.5678L16.5977 30.2968C16.7327 30.4321 16.7327 30.6541 16.5977 30.7894L14.2042 33.1922C14.0692 33.3275 13.8483 33.3275 13.7132 33.1922L11.3198 30.7894C11.1848 30.6541 11.1848 30.4321 11.3198 30.2965L12.8948 28.7155C13.0296 28.5802 13.0296 28.3582 12.8948 28.2226L12.138 27.4632C12.0032 27.3276 11.782 27.3276 11.6473 27.4632L8.82444 30.2968C8.68938 30.4321 8.68938 30.6541 8.82444 30.7894L13.7132 35.6971C13.8483 35.8324 14.0692 35.8324 14.2042 35.6971L19.0931 30.7894C19.2281 30.6541 19.2281 30.4321 19.0931 30.2968L12.1383 23.3152Z" fill="#1D6E71"/>
<path d="M15.0222 24.5677L15.7787 25.3272C15.9138 25.4627 16.1347 25.4627 16.2698 25.3272L21.1588 20.4194C21.2939 20.2839 21.2939 20.0621 21.1588 19.9266L20.402 19.1671C20.2669 19.0315 20.0461 19.0315 19.911 19.1671L15.0222 24.0748C14.8871 24.2101 14.8871 24.4319 15.0222 24.5677Z" fill="#1D6E71"/>
<path d="M20.4021 15.0192C20.267 14.8839 20.0461 14.8839 19.9111 15.0194L19.1545 15.7789C19.0195 15.9145 19.0195 16.1362 19.1545 16.2718L24.8618 22.0005C24.9968 22.1361 24.9968 22.3578 24.8618 22.4934L22.4683 24.8962C22.3333 25.0315 22.1124 25.0315 21.9773 24.8962L20.4021 23.3149C20.267 23.1796 20.0461 23.1796 19.9111 23.3149L19.1545 24.0747C19.0195 24.2102 19.0195 24.432 19.1545 24.5675L21.9773 27.4011C22.1124 27.5367 22.3333 27.5367 22.4683 27.4011L27.3571 22.4937C27.4922 22.3581 27.4922 22.1364 27.3571 22.0008L20.4021 15.0192Z" fill="#1D6E71"/>
</svg>
